<svg xmlns="http://www.w3.org/2000/svg" xmlns:xlink="http://www.w3.org/1999/xlink" width="472" zoomAndPan="magnify" viewBox="0 0 354 353.999987" height="472" preserveAspectRatio="xMidYMid meet" version="1.0"><defs><clipPath id="47fad417af"><path d="M 0 0 L 353.542969 0 L 353.542969 353.542969 L 0 353.542969 Z M 0 0 " clip-rule="nonzero"/></clipPath><clipPath id="ea83a74077"><path d="M 176.769531 0 C 79.144531 0 0 79.144531 0 176.769531 C 0 274.398438 79.144531 353.542969 176.769531 353.542969 C 274.398438 353.542969 353.542969 274.398438 353.542969 176.769531 C 353.542969 79.144531 274.398438 0 176.769531 0 Z M 176.769531 0 " clip-rule="nonzero"/></clipPath><clipPath id="03230aad46"><path d="M 47.335938 59.308594 L 306.085938 59.308594 L 306.085938 294.058594 L 47.335938 294.058594 Z M 47.335938 59.308594 " clip-rule="nonzero"/></clipPath></defs><g clip-path="url(#47fad417af)"><g clip-path="url(#ea83a74077)"><path fill="#ffffff" d="M 0 0 L 353.542969 0 L 353.542969 353.542969 L 0 353.542969 Z M 0 0 " fill-opacity="1" fill-rule="nonzero"/></g></g><g clip-path="url(#03230aad46)"><path fill="#000000" d="M 305.949219 266.144531 C 305.753906 256.460938 305.789062 246.734375 304.796875 237.089844 L 303.441406 225.222656 L 299.820312 203.78125 L 294.714844 171.554688 L 290.65625 140.085938 C 290.078125 135.742188 289.589844 131.292969 288.59375 127.019531 C 287.890625 124.007812 286.914062 121.246094 284.621094 119.066406 C 279.476562 114.164062 272.011719 112.347656 267.488281 106.660156 C 263.980469 102.25 263.597656 95.882812 262.1875 90.613281 C 261.699219 88.796875 261.179688 86.921875 260.140625 85.320312 C 259.644531 84.554688 258.886719 83.871094 258.246094 83.214844 C 258.53125 82.246094 258.890625 81.238281 259.050781 80.238281 C 259.304688 78.648438 259.164062 76.882812 259.160156 75.269531 L 277.203125 74.441406 L 282.757812 74.078125 C 283.4375 74.03125 284.640625 73.828125 285.296875 73.992188 C 285.53125 74.054688 286.066406 74.535156 286.28125 74.6875 C 286.394531 74.765625 286.503906 74.847656 286.617188 74.925781 C 289.027344 74.792969 291.4375 74.6875 293.851562 74.601562 C 291.03125 72.128906 288.125 69.832031 285.027344 67.636719 C 283.421875 66.496094 281.660156 65.625 280.097656 64.417969 C 278.78125 64.160156 277.449219 64.03125 276.101562 63.972656 C 276.371094 64.234375 276.664062 64.480469 276.925781 64.75 C 275.398438 64.992188 273.820312 65.023438 272.277344 65.117188 L 258.074219 65.714844 C 257.644531 64.71875 257.242188 63.574219 256.640625 62.675781 C 256.113281 61.886719 255.125 60.621094 254.109375 60.539062 C 253.585938 60.5 253.199219 60.6875 252.835938 61.058594 C 251.625 62.289062 251.59375 64.179688 251.578125 65.796875 L 240.617188 66.148438 L 239.816406 63.429688 C 239.324219 61.992188 238.6875 60.179688 237.230469 59.46875 C 236.957031 59.496094 236.738281 59.527344 236.5 59.671875 C 234.648438 60.792969 236.496094 64.019531 236.027344 65.867188 L 233.71875 66.265625 L 233.003906 62.253906 C 232.882812 61.652344 232.761719 61.125 232.4375 60.597656 C 232.109375 60.070312 231.515625 59.46875 230.871094 59.367188 C 230.375 59.289062 229.867188 59.445312 229.480469 59.761719 C 228.933594 60.210938 228.625 61 228.375 61.652344 C 227.683594 63.46875 227.246094 65.3125 226.921875 67.226562 C 223.550781 67.167969 219.929688 66.699219 216.609375 67.414062 L 215.644531 67.632812 C 215.59375 67.644531 215.539062 67.695312 215.492188 67.667969 C 215.214844 67.488281 214.882812 66.371094 214.734375 66.023438 C 213.777344 63.714844 212.808594 61.964844 210.554688 60.71875 L 209.804688 61.09375 C 207.382812 62.402344 206.808594 65.378906 206.078125 67.8125 L 199.523438 68.042969 C 199.300781 67.671875 199.335938 67.015625 199.289062 66.585938 C 199.101562 64.796875 198.789062 63.039062 197.621094 61.597656 C 197.253906 61.148438 196.539062 60.753906 195.949219 60.753906 C 194.132812 60.753906 192.554688 64.679688 191.902344 66.167969 C 191.632812 66.785156 191.375 67.621094 190.863281 68.078125 C 190.496094 68.40625 190.304688 68.535156 189.828125 68.515625 C 188.675781 67.515625 188.542969 65.539062 188.058594 64.125 C 187.761719 63.425781 187.253906 62.292969 186.527344 61.964844 C 186.082031 61.761719 185.507812 61.742188 185.058594 61.941406 C 183.03125 62.832031 181.75 66.9375 181.007812 68.835938 L 168.992188 68.808594 C 168.566406 67.355469 168.167969 65.835938 167.53125 64.460938 C 167.0625 63.449219 166.722656 62.832031 165.628906 62.425781 C 165.078125 62.515625 164.863281 62.605469 164.460938 63.007812 C 162.9375 64.523438 163.078125 67.355469 162.996094 69.355469 L 149.351562 69.378906 C 149.195312 69.382812 148.996094 69.503906 148.875 69.398438 C 148.785156 69.324219 148.554688 68.671875 148.492188 68.523438 C 147.621094 66.511719 147.25 64.71875 145.203125 63.535156 C 144.890625 63.507812 144.691406 63.386719 144.453125 63.636719 C 143.675781 64.445312 143.863281 68.578125 143.789062 69.808594 C 142.273438 69.546875 140.484375 69.695312 138.9375 69.695312 L 129.707031 69.707031 C 128.644531 69.707031 127.183594 69.886719 126.167969 69.636719 L 126.109375 69.414062 C 125.628906 67.511719 125.242188 65.195312 123.378906 64.136719 C 122.78125 63.792969 122.589844 63.800781 121.925781 64.03125 C 120.589844 64.496094 120.257812 66.050781 119.695312 67.199219 C 119.351562 67.902344 119.039062 68.59375 118.230469 68.835938 C 117.691406 69 117.0625 68.878906 116.589844 68.59375 C 116.273438 67.503906 116.539062 66.019531 116.613281 64.882812 C 116.125 63.835938 114.867188 62.40625 113.785156 61.9375 C 113.386719 61.761719 112.9375 61.824219 112.554688 62.015625 C 110.910156 62.84375 110.175781 64.785156 109.5625 66.402344 C 109.125 67.558594 108.878906 68.78125 108.597656 69.980469 C 107.605469 70.183594 106.449219 69.839844 105.4375 69.847656 L 85.175781 69.839844 L 85.304688 69.6875 C 85.953125 68.953125 86.667969 68.289062 87.40625 67.652344 C 83.773438 67.386719 80.128906 67.257812 76.484375 67.199219 C 76.460938 67.21875 76.4375 67.238281 76.417969 67.257812 C 75.78125 67.871094 75.4375 68.515625 74.488281 68.394531 C 73.527344 68.269531 73.039062 68.644531 72.25 69.152344 L 72.019531 69.300781 C 70.761719 70.128906 69.632812 71.289062 68.515625 72.300781 L 64.589844 75.953125 C 65.464844 76.054688 66.34375 76.160156 67.214844 76.289062 C 68.6875 74.871094 70.179688 73.464844 71.707031 72.070312 L 71.980469 72.160156 C 70.847656 73.707031 69.570312 75.109375 68.234375 76.460938 C 70.808594 76.875 73.355469 77.425781 75.863281 78.125 C 76.300781 77.777344 76.738281 77.445312 77.191406 77.175781 L 109.125 78.378906 C 108.714844 82.296875 108.699219 86.238281 108.78125 90.175781 C 108.796875 90.957031 108.882812 91.710938 108.992188 92.484375 C 109.019531 92.675781 109.148438 93.171875 109.117188 93.339844 C 109.097656 93.46875 108.289062 94.234375 108.15625 94.382812 C 107.433594 95.183594 106.957031 96.070312 106.53125 97.058594 C 103.800781 103.382812 102.035156 110.089844 99.011719 116.308594 C 98.570312 117.226562 98.222656 118.214844 97.699219 119.085938 C 93.886719 121.109375 90.132812 123.09375 86.515625 125.457031 C 83.617188 127.351562 80.160156 129.722656 78.882812 133.078125 C 76.621094 132.824219 75.320312 133.011719 73.519531 134.457031 C 71.8125 135.824219 70.664062 137.710938 69.574219 139.578125 C 65.824219 146 63.371094 153.058594 59.671875 159.488281 L 55.773438 165.789062 C 54.558594 167.601562 52.765625 169.324219 52.136719 171.433594 L 53.5 174.707031 C 52 174.707031 48.628906 174.328125 47.542969 175.582031 C 47.375 175.777344 47.378906 176.085938 47.335938 176.328125 C 47.757812 176.738281 48.394531 176.714844 48.976562 176.710938 C 49.40625 176.707031 50.179688 176.597656 50.585938 176.769531 C 50.953125 176.921875 51.476562 177.425781 51.792969 177.679688 C 53.109375 178.730469 54.234375 180.015625 55.59375 181.007812 C 59.5625 183.910156 64.921875 185.527344 69.828125 185.566406 C 71.109375 185.574219 72.417969 185.585938 73.667969 185.261719 C 74.890625 184.945312 76.265625 183.894531 77.355469 183.253906 L 74.882812 191.941406 L 72.164062 200.613281 L 68.527344 214.933594 C 65.109375 229.195312 62.800781 243.800781 60.628906 258.304688 L 59.636719 264.410156 C 59.179688 266.835938 58.515625 269.394531 58.707031 271.882812 C 59.515625 273.304688 61.28125 273.792969 62.773438 274.207031 C 64.4375 274.667969 66.144531 274.894531 67.839844 275.21875 C 71.039062 275.824219 74.101562 276.589844 77.375 276.003906 C 77.5625 276.277344 77.519531 276.128906 77.519531 276.40625 C 77.5 277.980469 78.386719 278.808594 79.441406 279.863281 C 82.242188 282.65625 85.980469 284.09375 89.902344 284.058594 C 92.75 284.03125 95.597656 283.808594 98.449219 284 C 100.414062 284.132812 102.421875 284.535156 104.367188 284.851562 C 105.6875 285.066406 107.113281 285.191406 108.386719 285.59375 C 110.25 286.179688 112.421875 287.796875 114.277344 286.632812 C 114.359375 286.277344 114.433594 286.285156 114.238281 285.949219 C 113.878906 285.339844 113.261719 285.011719 112.652344 284.703125 C 110.503906 283.617188 108.074219 283.105469 105.765625 282.503906 C 104.78125 282.246094 103.8125 281.910156 102.820312 281.691406 C 101.675781 281.4375 100.539062 281.53125 99.382812 281.421875 C 98.394531 281.332031 97.433594 280.996094 96.4375 280.941406 L 93.660156 280.886719 C 93.46875 280.882812 92.761719 280.898438 92.601562 280.804688 C 92.023438 280.472656 91.808594 279.535156 91.039062 279.175781 C 89.554688 278.488281 87.410156 279.417969 85.90625 278.777344 C 84.882812 278.339844 84.265625 277.066406 83.242188 276.765625 C 82.007812 276.398438 80.679688 277.0625 79.453125 276.464844 C 79.078125 275.335938 81.398438 266.917969 81.8125 265.269531 L 84.984375 252.082031 L 90.03125 235.753906 L 98.410156 210.386719 C 103.621094 196.367188 110.023438 182.800781 114.546875 168.519531 C 116.21875 163.242188 117.394531 157.742188 118.449219 152.3125 C 119.703125 145.859375 120.566406 139.304688 123.550781 133.355469 C 124.433594 131.597656 125.5625 129.96875 126.878906 128.503906 C 130.875 124.050781 135.792969 120.539062 139.902344 116.171875 L 143.820312 112.074219 C 144.164062 111.6875 144.910156 110.640625 145.34375 110.484375 C 146.632812 111.503906 148.046875 112.488281 149.226562 113.625 C 150.980469 115.320312 152.445312 117.289062 153.878906 119.25 C 154.707031 120.378906 155.511719 121.402344 156.058594 122.707031 C 151.230469 124.542969 147.695312 128.613281 143.617188 131.652344 C 142.167969 132.730469 140.492188 133.464844 139.1875 134.746094 C 138.3125 135.601562 137.820312 136.410156 137.324219 137.511719 C 135.890625 140.695312 135.328125 144.398438 134.796875 147.828125 L 133.375 156.847656 L 128.1875 190.105469 L 123.171875 219.519531 L 120.347656 237.683594 L 114.761719 268.796875 C 114.238281 272.6875 113.914062 276.457031 113.976562 280.390625 C 113.992188 281.285156 113.886719 282.527344 114.25 283.355469 L 114.335938 283.503906 C 114.753906 283.503906 114.722656 283.476562 115.027344 283.175781 C 115.578125 281.390625 115.644531 279.390625 115.933594 277.542969 L 118.242188 263.859375 L 121.433594 247.898438 L 124.492188 229.007812 L 127.089844 213.515625 L 130.660156 193.046875 L 134.496094 168.726562 L 138.195312 145.230469 C 138.59375 142.878906 138.699219 139.976562 139.535156 137.75 C 139.859375 136.886719 140.875 136.105469 141.664062 135.710938 C 143.039062 135.019531 144.847656 134.921875 146.285156 135.457031 C 148.390625 136.238281 149.585938 137.632812 150.464844 139.660156 C 151.398438 141.8125 151.84375 144.269531 152.25 146.570312 C 154.117188 157.121094 153.308594 167.539062 153.292969 178.167969 L 153.246094 191.078125 L 153.113281 201.007812 L 152.75 204.648438 L 151.792969 217.226562 L 151.382812 221.710938 L 151.339844 236.675781 L 151.160156 255.140625 L 151.003906 264.921875 C 150.902344 268.824219 150.550781 273.460938 151.609375 277.246094 L 151.683594 277.507812 C 151.921875 278.351562 152.222656 279.070312 152.902344 279.640625 L 153.394531 279.765625 C 154.4375 279.136719 154.820312 278.058594 155.109375 276.929688 C 155.835938 274.050781 155.695312 270.925781 155.691406 267.976562 L 155.613281 258.328125 L 155.3125 251.671875 L 155.59375 238.308594 L 155.332031 225.144531 C 155.328125 223.695312 155.578125 222.261719 155.65625 220.824219 L 155.808594 216.324219 L 156.984375 201.25 L 157.089844 187.949219 L 157.023438 172.140625 L 156.601562 166.050781 L 155.777344 153.816406 C 155.484375 150.308594 155.054688 146.992188 154.328125 143.535156 C 153.847656 141.25 153.171875 138.625 151.921875 136.632812 C 150.957031 135.097656 149.773438 133.960938 147.988281 133.46875 C 147.335938 133.292969 146.5625 133.199219 145.957031 132.917969 C 147.253906 131.46875 148.90625 130.34375 150.402344 129.105469 C 152.058594 127.730469 153.628906 126.234375 155.425781 125.042969 L 155.394531 125.292969 C 154.78125 130.414062 155.808594 135.503906 156.9375 140.480469 C 157.617188 143.453125 158.226562 146.789062 160.167969 149.242188 C 160.859375 150.121094 161.316406 150.488281 162.4375 150.589844 C 163.175781 150.65625 163.839844 150.558594 164.417969 150.0625 C 165.878906 148.796875 166.675781 146.640625 167.652344 145.007812 L 173.199219 135.5625 C 176.226562 136.507812 179.703125 137.960938 182.757812 136.335938 C 184.234375 135.554688 185.445312 134.609375 186.761719 133.589844 C 185.648438 135.582031 184.769531 138.117188 183.40625 139.898438 C 182.804688 140.6875 181.921875 141.214844 181.28125 141.96875 C 181.945312 143.46875 182.824219 144.757812 183.621094 146.171875 C 185.421875 149.371094 187.125 152.632812 189.722656 155.277344 C 190.660156 156.226562 191.636719 157.101562 192.917969 157.570312 C 193.292969 157.707031 193.609375 157.777344 193.988281 157.601562 C 195.808594 156.761719 197.027344 152.851562 197.574219 151.054688 L 199.089844 145.019531 L 202.402344 132.867188 C 203.136719 130.253906 203.898438 127.515625 204.984375 125.027344 C 208.167969 128.210938 211.363281 132.117188 215.632812 133.890625 C 215.832031 134.195312 215.941406 134.457031 215.972656 134.828125 C 216.230469 137.703125 215.882812 140.773438 215.769531 143.664062 L 215.445312 158.992188 L 215.957031 184.882812 L 216.199219 208.421875 L 217.261719 222.496094 L 218.613281 240.382812 L 220.503906 266.816406 L 221.40625 281.03125 C 221.433594 281.300781 221.539062 281.464844 221.703125 281.671875 L 222.125 281.683594 C 222.671875 281.097656 222.300781 279.773438 222.585938 279.46875 C 222.746094 279.304688 223.886719 279.019531 224.148438 278.9375 L 229.699219 277.175781 C 230.832031 276.78125 231.964844 276.371094 233.046875 275.851562 C 234.523438 275.136719 236.105469 274.003906 237.78125 273.851562 C 238.214844 273.8125 238.363281 273.921875 238.695312 274.179688 C 239.253906 275.25 239.132812 276.617188 239.117188 277.796875 C 239.097656 279.878906 238.898438 282.089844 239.109375 284.15625 C 239.617188 289.15625 243.332031 291.167969 247.675781 292.527344 L 253.816406 294.074219 L 253.867188 292.996094 C 253.269531 291.824219 251 290.851562 249.859375 290.152344 C 248.597656 289.378906 247.375 288.578125 246.332031 287.515625 C 245.59375 286.765625 244.992188 285.984375 244.804688 284.925781 C 244.460938 282.953125 244.65625 280.617188 244.726562 278.613281 L 245.054688 270.097656 L 246.117188 249.664062 C 246.652344 242.136719 247.382812 234.496094 247.4375 226.953125 L 246.777344 200.058594 L 246.589844 198.292969 C 246.351562 197.355469 246.3125 196.28125 246.203125 195.316406 L 245.554688 189.292969 L 242.691406 163.851562 L 240.617188 150.570312 C 240.207031 147.996094 239.527344 145.21875 239.570312 142.609375 C 239.605469 140.394531 240.152344 138.035156 240.84375 135.9375 C 241.226562 134.78125 241.707031 133.761719 241.816406 132.535156 L 241.835938 132.300781 L 243.777344 133.566406 C 245.339844 134.839844 246.238281 137.097656 246.847656 138.957031 C 247.835938 141.976562 248.382812 145.25 248.941406 148.371094 C 250.191406 155.320312 250.925781 162.320312 251.597656 169.34375 L 253.863281 191.042969 L 254.988281 204.550781 C 255.570312 208.5625 255.582031 212.785156 255.777344 216.835938 L 256.054688 224.90625 C 256.050781 226.019531 256.132812 227.195312 255.941406 228.289062 L 255.726562 249.347656 C 255.675781 251.496094 255.785156 253.660156 255.65625 255.804688 L 254.503906 273.378906 L 254.375 287.152344 L 254.222656 291.523438 C 254.164062 292.382812 253.984375 293.21875 254.078125 294.078125 C 254.796875 294.183594 255.265625 294.140625 255.914062 293.8125 C 256.960938 290.855469 256.554688 286.9375 256.554688 283.816406 L 256.574219 273.503906 C 260.351562 275.914062 264.914062 275.835938 269.0625 277.195312 C 269.398438 277.308594 270.199219 277.46875 270.464844 277.671875 C 270.945312 278.042969 270.828125 279.070312 271.378906 279.496094 L 271.511719 279.382812 C 271.644531 279.277344 271.933594 279.109375 272.117188 279.128906 C 272.496094 279.167969 273.40625 279.796875 273.816406 279.96875 C 274.523438 280.265625 275.273438 280.417969 276.03125 280.523438 C 277.085938 280.667969 278.175781 280.582031 279.023438 279.867188 C 279.324219 279.617188 279.597656 279.3125 279.691406 278.921875 C 280.152344 276.9375 279.992188 274.730469 280.140625 272.703125 L 280.855469 266.007812 L 281.132812 261.671875 C 282.304688 261.535156 283.78125 261.503906 284.875 261.066406 C 285.371094 260.863281 285.875 260.414062 286.074219 259.910156 C 286.25 259.46875 286.160156 259.367188 285.992188 258.957031 C 284.875 258.171875 283.941406 258.488281 282.664062 258.527344 C 282.324219 258.535156 281.9375 258.597656 281.621094 258.445312 C 281.402344 258.34375 281.4375 257.996094 281.433594 257.78125 C 281.414062 257.0625 281.683594 256.363281 281.644531 255.636719 C 281.59375 254.582031 281.351562 253.511719 281.230469 252.460938 C 281.027344 250.683594 280.953125 248.855469 280.921875 247.066406 L 280.90625 239.332031 C 280.894531 237.828125 280.933594 236.152344 280.609375 234.679688 L 280.742188 234.683594 L 280.964844 234.6875 C 281.484375 234.699219 281.855469 234.707031 282.261719 234.324219 C 282.550781 234.058594 282.742188 233.574219 282.765625 233.183594 C 282.804688 232.609375 282.722656 232.449219 282.34375 232.035156 C 281.632812 231.828125 281.179688 231.945312 280.472656 232.125 L 279.183594 206.285156 L 279.402344 206.242188 C 280.378906 206.042969 280.929688 205.839844 281.625 205.117188 C 281.8125 204.617188 281.808594 204.429688 281.691406 203.90625 C 281.265625 203.351562 280.890625 203.078125 280.183594 202.976562 L 278.945312 202.875 C 278.449219 200.808594 277.925781 198.523438 277.796875 196.398438 L 277.980469 196.308594 C 279.308594 195.628906 280.191406 194.550781 281.371094 193.703125 C 282.488281 196.824219 283.003906 200.078125 283.765625 203.285156 L 285.832031 210.925781 C 286.097656 212.015625 286.230469 213.1875 286.441406 214.292969 L 287.835938 221.691406 C 286.949219 221.722656 285.636719 221.585938 284.972656 222.257812 C 284.582031 222.65625 284.507812 222.992188 284.4375 223.527344 C 284.609375 224 284.714844 224.289062 285.207031 224.503906 C 286.078125 224.886719 287.34375 224.523438 288.292969 224.636719 L 288.609375 231.507812 C 287.539062 231.617188 286.441406 231.59375 285.683594 232.464844 C 285.324219 232.878906 284.890625 233.617188 284.972656 234.1875 C 285.03125 234.617188 285.238281 234.894531 285.617188 235.085938 C 286.535156 235.550781 287.738281 235.441406 288.738281 235.417969 L 288.703125 242.609375 C 288.789062 245.46875 289.25 248.28125 288.75 251.125 C 287.527344 250.289062 286.304688 249.371094 284.734375 249.628906 C 284.042969 249.742188 283.222656 250.167969 282.878906 250.8125 C 282.691406 251.15625 282.542969 251.609375 282.679688 251.988281 C 282.863281 252.488281 283.429688 252.832031 283.898438 253.03125 C 284.875 253.433594 286.609375 253.683594 287.609375 253.25 L 289.070312 252.433594 L 288.792969 256.648438 C 288.648438 258.390625 288.421875 260.160156 288.578125 261.902344 C 288.730469 263.628906 289.359375 265.261719 289.683594 266.957031 C 290.3125 270.226562 290.359375 273.988281 290.054688 277.304688 C 289.164062 277.34375 288.1875 277.289062 287.351562 277.613281 C 287.0625 278.128906 287.078125 278.242188 287.09375 278.8125 C 287.332031 279.214844 287.507812 279.382812 287.992188 279.480469 C 288.871094 279.65625 290.027344 279.453125 290.761719 278.925781 C 292.171875 277.917969 292.46875 275.796875 292.648438 274.195312 C 292.765625 273.164062 292.730469 272.140625 292.933594 271.121094 C 296.71875 273.535156 301.363281 274.152344 305.753906 273.324219 C 306.242188 272.816406 305.980469 267.300781 305.957031 266.160156 Z M 279.464844 68.789062 L 279.667969 68.734375 C 280.523438 68.578125 281.683594 69.117188 282.394531 69.558594 L 282.179688 69.792969 C 281.445312 69.867188 279.746094 70.078125 279.128906 69.691406 C 279.164062 69.261719 279.253906 69.15625 279.464844 68.789062 Z M 259.175781 69.117188 C 260.234375 68.949219 261.511719 69.050781 262.597656 69.058594 L 268.882812 69.109375 C 271.359375 69.132812 273.902344 68.9375 276.367188 69.046875 C 277.019531 69.074219 277.964844 69.152344 278.414062 69.640625 L 277.921875 69.832031 C 274.921875 70.160156 271.792969 70.0625 268.769531 70.160156 C 265.996094 70.246094 263.109375 70.546875 260.347656 70.46875 C 259.945312 70.460938 259.636719 70.445312 259.300781 70.203125 C 259.175781 69.792969 259.117188 69.558594 259.171875 69.117188 Z M 105.84375 73.78125 C 104.539062 73.777344 103.214844 73.945312 101.902344 73.96875 L 88.316406 74.101562 C 86.140625 74.097656 83.617188 74.300781 81.511719 73.722656 L 81.632812 73.449219 C 82.253906 73.125 82.792969 72.980469 83.480469 72.863281 C 86.109375 72.703125 107.167969 72.523438 108.0625 73.039062 L 108.0625 73.535156 C 107.46875 73.898438 106.542969 73.761719 105.84375 73.777344 Z M 255.476562 68.957031 C 256.003906 68.867188 256.304688 68.84375 256.8125 69.019531 C 257.027344 69.449219 256.988281 69.835938 256.976562 70.304688 L 256.394531 70.429688 C 255.914062 70.480469 255.488281 70.453125 255.011719 70.398438 L 254.820312 70.019531 C 254.957031 69.363281 254.953125 69.371094 255.476562 68.953125 Z M 254.679688 75.492188 L 257.046875 75.417969 C 257.273438 77.671875 257.53125 80.113281 256.515625 82.210938 C 256.230469 82.542969 256.257812 82.574219 255.832031 82.625 L 255.585938 82.421875 C 254.441406 81.390625 254.710938 76.996094 254.679688 75.492188 Z M 253.921875 86.34375 C 254.75 85.742188 255.511719 85.808594 256.496094 85.808594 L 256.976562 85.765625 C 259.523438 88.84375 260.050781 93.804688 260.664062 97.613281 C 259.941406 96.347656 259.203125 94.695312 257.820312 94.039062 C 257.15625 93.722656 256.464844 93.71875 255.78125 93.964844 C 253.832031 94.667969 252.929688 96.128906 252.144531 97.917969 C 251.359375 99.886719 250.894531 101.839844 250.414062 103.894531 C 249.726562 101.945312 249.761719 100.789062 249.894531 98.738281 C 249.957031 97.738281 249.925781 96.722656 250.085938 95.730469 C 250.507812 93.109375 251.152344 90.078125 252.621094 87.828125 C 252.9375 87.34375 253.292969 86.78125 253.769531 86.445312 Z M 241.066406 69.609375 L 250.238281 69.289062 C 250.839844 69.25 252.277344 69.070312 252.710938 69.445312 L 252.734375 70.265625 C 251.96875 70.925781 244.640625 70.734375 243.273438 70.746094 C 242.53125 70.761719 241.605469 70.886719 240.898438 70.660156 C 240.894531 70.210938 240.851562 70.007812 241.066406 69.609375 Z M 239.933594 76.085938 L 251.953125 75.65625 C 252.277344 75.601562 252.5 75.625 252.824219 75.664062 L 253.40625 81.230469 C 253.421875 81.464844 253.566406 82.375 253.488281 82.554688 C 253.371094 82.824219 252.273438 83.585938 251.976562 83.867188 C 251.390625 84.429688 250.878906 85.117188 250.507812 85.839844 C 248.25 90.25 248.3125 95.027344 247.445312 99.777344 L 245.910156 95.175781 C 245.082031 92.65625 244.28125 89.820312 242.828125 87.570312 C 242.003906 86.292969 240.953125 85.273438 239.816406 84.277344 C 239.355469 81.726562 239.828125 78.683594 239.933594 76.085938 Z M 233.003906 70.0625 L 234.742188 69.929688 C 235.472656 69.925781 236.171875 69.894531 236.882812 70.097656 L 236.925781 70.671875 C 236.550781 70.996094 236.105469 70.941406 235.625 71 L 232.882812 70.949219 C 232.832031 70.503906 232.757812 70.425781 233.007812 70.0625 Z M 234.730469 76.46875 L 237.558594 76.363281 C 237.640625 78.65625 237.496094 81.226562 237.960938 83.464844 L 238.023438 83.765625 C 238.226562 84.800781 238.523438 85.539062 238.992188 86.480469 L 236.632812 88.101562 C 236.378906 88.269531 236.425781 88.304688 236.097656 88.265625 C 236.207031 87.71875 236.402344 86.589844 236.183594 86.070312 C 235.777344 85.097656 233.894531 84.726562 232.992188 84.460938 L 232.507812 76.585938 Z M 232.136719 86.183594 L 233.941406 87.128906 L 231.347656 96.652344 L 231.132812 97.265625 L 230.972656 97.097656 C 230.214844 93.082031 230.773438 90.003906 232.132812 86.183594 Z M 227.609375 76.480469 L 230.015625 76.308594 C 230.242188 77.78125 230.019531 79.285156 230.246094 80.75 C 230.367188 81.53125 230.6875 83.398438 230.492188 84.125 C 230.355469 84.632812 229.800781 85.332031 229.554688 85.835938 C 228.675781 87.632812 228.171875 89.617188 228.097656 91.621094 C 227.976562 94.902344 229.15625 97.605469 229.570312 100.757812 C 229.753906 102.148438 229.609375 103.566406 229.445312 104.953125 L 229.246094 104.683594 C 227.910156 102.898438 227.28125 100.367188 226.511719 98.289062 L 223.433594 90.589844 C 222.703125 89.164062 221.417969 86.988281 219.832031 86.46875 C 218.828125 86.59375 218.328125 87.425781 217.726562 88.148438 L 216.800781 76.832031 Z M 216.230469 70.292969 C 216.394531 70.222656 217.324219 70.332031 217.542969 70.332031 L 221.371094 70.269531 C 222.707031 70.230469 224.046875 70.117188 225.382812 70.144531 C 225.847656 70.152344 226.332031 70.101562 226.742188 70.351562 L 226.761719 70.917969 C 226.207031 71.347656 225.140625 71.15625 224.433594 71.167969 L 220.882812 71.375 C 220.445312 71.464844 219.773438 71.367188 219.316406 71.359375 L 216.3125 71.324219 C 216.058594 71.007812 216.085938 70.890625 216.019531 70.507812 C 216.089844 70.4375 216.136719 70.332031 216.230469 70.292969 Z M 211.464844 77.132812 L 214.644531 77.035156 L 215.082031 84.660156 C 215.199219 86.066406 215.660156 88.121094 215.339844 89.480469 C 214.886719 91.398438 213.558594 93.402344 212.761719 95.222656 L 211.6875 97.828125 C 211.488281 98.363281 211.375 98.945312 211.039062 99.40625 L 210.859375 99.09375 C 209.453125 95.523438 209.601562 90.953125 206.195312 88.496094 L 205.957031 88.324219 L 205.894531 77.234375 Z M 200.644531 71.246094 C 201.976562 71.167969 204.175781 70.929688 205.429688 71.382812 L 205.460938 71.648438 L 205.101562 71.875 C 204.601562 72.023438 204.070312 71.980469 203.546875 72.019531 C 202.574219 72.089844 201.441406 72.3125 200.480469 72.113281 L 200.359375 71.496094 Z M 200.335938 77.3125 L 203.570312 77.199219 C 203.804688 78.875 203.675781 80.667969 203.691406 82.363281 C 203.707031 84.476562 203.863281 86.441406 204.183594 88.535156 L 203.695312 88.960938 C 199.332031 92.507812 198.886719 99.046875 196.980469 103.972656 L 196.757812 104.042969 L 196.476562 103.484375 C 195.792969 102.304688 195.507812 100.78125 195.105469 99.476562 C 193.789062 95.207031 192.652344 90.527344 192.433594 86.050781 L 192.398438 77.613281 Z M 190.496094 71.222656 L 191.773438 71.082031 L 192.914062 71.183594 L 192.972656 71.355469 C 192.597656 71.765625 192.207031 71.972656 191.71875 72.226562 C 191.21875 72.34375 191.109375 72.367188 190.621094 72.226562 L 190.328125 71.492188 L 190.5 71.222656 Z M 185.960938 77.777344 L 189.777344 77.734375 C 189.828125 84.121094 189.441406 90.222656 191.625 96.355469 L 189.773438 94.742188 C 188.171875 93.527344 186.554688 92.734375 184.652344 92.105469 C 183.261719 87.601562 183.035156 82.742188 182.785156 78.058594 C 183.410156 77.710938 185.183594 77.820312 185.960938 77.777344 Z M 181.691406 91.632812 C 180.25 92.292969 179.121094 93.203125 177.867188 94.148438 C 175.996094 95.558594 174.195312 96.996094 172.539062 98.664062 C 171.546875 99.707031 170.6875 100.753906 169.871094 101.941406 L 169.382812 78.179688 L 175.183594 78.128906 L 180.421875 78.042969 Z M 169.59375 72.152344 C 170.453125 72.152344 172.253906 71.953125 172.976562 72.34375 C 173.214844 72.476562 173.042969 72.515625 173.398438 72.429688 C 174.105469 72.265625 174.707031 72.132812 175.4375 72.046875 C 176.839844 71.730469 178.585938 72.160156 180.039062 72.101562 L 180.230469 72.089844 L 180.429688 72.308594 L 180.230469 72.714844 C 178.0625 73.070312 175.597656 72.832031 173.398438 72.8125 C 172.429688 72.75 170.085938 73.351562 169.429688 72.933594 L 169.328125 72.390625 Z M 165.152344 67.644531 L 165.457031 67.652344 C 166.398438 69.144531 166.65625 71.039062 166.765625 72.769531 C 166.988281 76.214844 166.609375 79.597656 166.390625 83.027344 C 166.292969 84.550781 166.339844 86.082031 166.382812 87.609375 L 166.304688 87.945312 L 166.152344 87.945312 C 166.152344 87.945312 164.933594 78.855469 164.933594 78.855469 C 164.777344 77 164.839844 75.074219 164.808594 73.210938 C 164.773438 71.351562 164.664062 69.460938 165.148438 67.644531 Z M 150.121094 72.492188 C 150.804688 72.328125 152.191406 72.679688 152.984375 72.644531 L 156.152344 72.367188 L 161.910156 72.242188 C 162.328125 72.261719 162.707031 72.230469 163.050781 72.503906 L 163.09375 72.9375 C 162.449219 73.226562 161.773438 73.125 161.085938 73.160156 C 157.894531 73.324219 154.738281 73.175781 151.550781 73.167969 L 150 73.046875 L 149.832031 72.71875 C 149.925781 72.644531 150 72.523438 150.121094 72.496094 Z M 149.988281 87.191406 C 150.625 84.464844 150.121094 81.472656 149.824219 78.730469 L 150.230469 78.679688 C 154.046875 78.15625 158.140625 78.589844 162.011719 78.445312 L 162.273438 78.476562 L 168.792969 105.988281 C 166.59375 107.753906 164.972656 109.707031 163.164062 111.867188 C 161.792969 110.429688 160.90625 108.796875 159.949219 107.074219 L 157.292969 101.074219 C 155.992188 98.082031 154.621094 94.921875 152.328125 92.527344 C 151.328125 91.480469 150.136719 90.695312 148.9375 89.910156 C 149.324219 89.035156 149.773438 88.128906 149.992188 87.191406 Z M 145.441406 79.3125 L 145.679688 73.863281 C 145.746094 73.105469 145.703125 72.578125 146.300781 72.0625 C 146.484375 72.101562 146.542969 72.1875 146.6875 72.308594 C 147.777344 75.019531 147.914062 77.855469 148.097656 80.738281 C 148.203125 82.394531 148.433594 84.238281 148.152344 85.878906 C 147.96875 86.957031 147.9375 87.53125 147.242188 88.429688 L 146.988281 88.472656 C 146.65625 88.484375 146.3125 88.28125 146.125 88.019531 C 145.855469 87.648438 145.71875 87 145.613281 86.558594 C 145.074219 84.300781 145.355469 81.605469 145.441406 79.308594 Z M 143.953125 78.59375 C 144.015625 80.226562 143.859375 81.871094 143.863281 83.511719 C 143.863281 85.128906 144.027344 86.738281 144.222656 88.34375 C 143.804688 88.789062 142.367188 89.023438 141.746094 89.289062 C 137.648438 91.03125 135.542969 95.667969 133.972656 99.515625 L 129.796875 110.808594 L 127.453125 78.570312 Z M 127.15625 72.226562 C 131.945312 71.902344 136.847656 72.816406 141.632812 72.351562 C 142.175781 72.300781 143.023438 72.339844 143.441406 72.671875 L 143.414062 73.335938 C 142.886719 73.5625 142.230469 73.476562 141.664062 73.46875 L 137.722656 73.308594 L 130.269531 73.328125 C 129.289062 73.328125 128.03125 73.449219 127.09375 73.210938 C 126.980469 72.734375 126.988281 72.6875 127.15625 72.226562 Z M 123.949219 78.613281 L 124.1875 78.558594 C 124.652344 78.503906 125.214844 78.449219 125.574219 78.742188 C 125.925781 80.4375 125.894531 82.261719 126 83.988281 L 126.476562 92.261719 L 124.339844 91.796875 C 123.65625 90.445312 124.039062 85.976562 123.996094 84.230469 C 123.953125 82.453125 123.523438 80.332031 123.949219 78.613281 Z M 119.28125 78.773438 L 119.816406 78.613281 C 120.335938 78.527344 121 78.445312 121.484375 78.683594 C 121.785156 79.910156 121.710938 81.191406 121.746094 82.445312 L 121.90625 88.339844 L 121.621094 88.429688 C 121 88 120.296875 87.707031 119.617188 87.382812 L 119.414062 82.132812 C 119.351562 80.976562 119.203125 79.9375 119.28125 78.773438 Z M 113.582031 72.71875 L 113.890625 72.644531 C 114.449219 72.5625 114.992188 72.542969 115.460938 72.839844 L 115.53125 73.375 L 115.101562 73.613281 C 114.484375 73.757812 114.085938 73.84375 113.46875 73.667969 L 113.292969 73.328125 Z M 110.878906 92.980469 L 112.121094 78.746094 C 112.875 78.503906 114.074219 78.625 114.890625 78.613281 C 115.757812 78.554688 116.625 78.636719 117.492188 78.6875 C 117.734375 81.476562 117.59375 84.382812 118.121094 87.125 L 118.160156 87.332031 C 117.988281 87.65625 118.066406 87.570312 117.839844 87.792969 C 115.5 90.082031 114.351562 92.671875 113.164062 95.675781 L 112.839844 96.449219 L 112.707031 96.398438 C 112.328125 95.355469 111.671875 94.296875 110.980469 93.433594 C 110.792969 93.195312 110.847656 93.351562 110.875 92.984375 Z M 104.945312 107.511719 C 106.074219 104.613281 107.023438 101.519531 108.457031 98.757812 C 108.84375 98.015625 109.207031 97.386719 109.9375 96.941406 L 110.25 96.914062 C 110.785156 97.21875 111.082031 97.683594 111.449219 98.167969 C 111.019531 101.355469 109.578125 104.4375 108.597656 107.492188 C 108.148438 108.898438 108 110.617188 107.144531 111.832031 C 106.691406 112.472656 105.921875 113.046875 105.339844 113.578125 L 101.664062 116.898438 L 100.703125 117.640625 L 100.621094 117.394531 L 104.945312 107.507812 Z M 94.148438 135.875 C 93.105469 138.074219 92.425781 140.304688 91.707031 142.617188 C 90.851562 141.476562 90.25 140.269531 89.472656 139.097656 C 87.3125 135.847656 84.125 134.992188 80.71875 133.5625 C 81.972656 131.109375 84.191406 129.539062 86.460938 128.078125 L 102.785156 118.457031 C 106.589844 115.898438 111.082031 112.859375 113.933594 109.230469 C 115.5 107.230469 116.742188 104.855469 117.875 102.59375 C 118.550781 101.253906 119.585938 99.632812 119.871094 98.164062 C 119.566406 97.671875 119.375 97.636719 118.867188 97.386719 C 118.3125 97.488281 118.03125 97.796875 117.683594 98.210938 C 115.628906 100.65625 114.800781 103.976562 113.15625 106.683594 C 112.160156 108.324219 110.886719 109.738281 109.632812 111.1875 L 113.667969 99.964844 C 114.964844 96.785156 116.335938 93.011719 119.003906 90.71875 C 119.164062 90.652344 119.167969 90.640625 119.363281 90.609375 C 120.199219 90.472656 121.296875 90.800781 121.972656 91.28125 C 122.355469 92.523438 122.109375 93.875 121.980469 95.136719 C 121.488281 99.992188 120.453125 105.140625 118.132812 109.488281 C 116.726562 112.125 115.097656 114.441406 112.871094 116.464844 C 111.125 118.050781 109.152344 119.300781 107.265625 120.707031 C 101.800781 124.78125 97.097656 129.644531 94.144531 135.871094 Z M 111.710938 124.289062 L 106.757812 123.59375 C 108.066406 122.460938 109.574219 121.65625 111.011719 120.714844 C 113.695312 118.960938 116.734375 116.570312 118.507812 113.859375 C 121.175781 109.789062 122.648438 105.042969 123.457031 100.273438 C 123.722656 98.726562 123.847656 97.171875 124.1875 95.632812 L 124.3125 95.585938 C 124.851562 95.457031 125.734375 95.769531 126.183594 96.074219 C 126.597656 96.359375 126.804688 96.792969 126.921875 97.265625 C 127.296875 98.765625 127.28125 100.34375 127.394531 101.878906 C 127.648438 105.324219 127.796875 108.804688 128.335938 112.222656 C 125.1875 116.582031 120.421875 120.28125 116.285156 123.679688 C 116.039062 123.878906 115.382812 124.484375 115.113281 124.558594 C 114.324219 124.769531 112.550781 124.375 111.707031 124.289062 Z M 149.003906 109.800781 L 147.226562 108.015625 L 149.800781 105.585938 L 149.949219 105.425781 L 150.726562 110.871094 L 150.769531 111.058594 Z M 156.632812 119.917969 C 156.011719 118.847656 155.53125 117.691406 154.871094 116.648438 C 154.160156 115.519531 153.269531 114.527344 152.429688 113.496094 C 152.160156 113.160156 151.304688 112.003906 151.289062 111.59375 C 151.273438 111.179688 151.753906 110.230469 151.863281 109.765625 C 152.042969 109.011719 152.089844 108.257812 152.191406 107.496094 C 152.226562 107.242188 152.257812 107.226562 152.253906 106.96875 C 152.199219 104.386719 151.191406 101.375 149.210938 99.644531 C 147.75 98.367188 146.25 97.882812 144.316406 98.046875 C 142.023438 98.242188 140.820312 99.613281 139.449219 101.285156 L 139.679688 101.171875 C 141.746094 100.191406 144.804688 99.300781 147.03125 100.214844 C 148 100.613281 149 101.628906 149.371094 102.605469 C 149.554688 103.089844 149.671875 103.5 149.472656 103.976562 L 149.023438 103.609375 C 148.714844 103.355469 148.4375 103.132812 148.066406 102.96875 C 146.996094 102.496094 145.980469 102.4375 144.886719 102.859375 C 144.144531 103.148438 143.09375 103.765625 142.796875 104.554688 C 142.3125 105.84375 143.042969 107.097656 143.574219 108.238281 L 140.773438 111.570312 C 137.792969 115.695312 133.515625 119.183594 129.695312 122.519531 C 126.171875 125.59375 122.273438 129.285156 120.457031 133.703125 L 118.5625 139.203125 L 118.527344 139.355469 C 117.164062 136.945312 115.449219 134.007812 115.101562 131.226562 C 115.027344 130.609375 114.929688 129.964844 115.09375 129.359375 L 115.148438 129.179688 C 116.386719 124.945312 121.144531 122.648438 124.265625 120.042969 C 126.632812 118.066406 128.910156 115.949219 130.761719 113.472656 C 134.363281 108.644531 135.0625 102.179688 137.941406 96.945312 C 139.3125 94.449219 141.28125 92.757812 144.019531 91.960938 C 144.347656 91.941406 144.65625 91.9375 144.984375 91.96875 C 152.507812 92.699219 154.664062 102.390625 157.492188 107.953125 C 158.589844 110.113281 159.800781 111.667969 161.335938 113.511719 C 160.746094 114.339844 159.949219 115.085938 159.3125 115.890625 C 158.296875 117.171875 157.480469 118.53125 156.632812 119.917969 Z M 164.109375 145.257812 L 163.488281 147.203125 C 162.019531 144.542969 161.652344 141.710938 160.898438 138.800781 C 160.234375 136.257812 159.382812 133.691406 159.027344 131.082031 C 158.804688 129.453125 158.710938 127.40625 158.960938 125.777344 C 159.519531 122.152344 161.191406 118.535156 163.78125 115.925781 L 164.113281 115.957031 L 163.332031 121.324219 C 163.140625 126.535156 166.71875 130.761719 170 134.355469 C 166.652344 136.988281 165.484375 141.425781 164.109375 145.257812 Z M 186.183594 132.082031 C 184.210938 133.503906 180.972656 135.578125 178.460938 135.070312 L 178.1875 135.011719 C 176.292969 134.605469 174.371094 133.664062 172.890625 132.402344 C 169.082031 129.15625 167.089844 125.53125 166.699219 120.523438 C 167.054688 120.066406 168.433594 119.589844 168.996094 119.296875 C 170.113281 118.714844 171.179688 118.050781 172.230469 117.359375 C 173.863281 116.292969 175.363281 115.035156 176.929688 113.875 L 181.464844 110.785156 L 184.550781 108.558594 L 185.140625 108.488281 C 186.152344 109.09375 187.003906 109.96875 187.878906 110.75 L 192.59375 114.890625 C 192.460938 115.933594 192.117188 116.984375 191.878906 118.007812 C 191.496094 119.648438 191.179688 121.289062 190.679688 122.898438 C 187.597656 123.363281 184.214844 124.347656 181.109375 123.710938 C 179.761719 123.433594 178.328125 122.695312 177.179688 121.949219 C 175.398438 120.792969 173.992188 119.742188 171.972656 118.976562 C 173.363281 121.902344 175.984375 124.066406 178.988281 125.273438 C 182.804688 126.808594 186.457031 125.8125 190.09375 124.296875 L 189.730469 125.714844 C 188.945312 127.890625 188.15625 130.660156 186.183594 132.082031 Z M 200.050781 129.59375 L 197.675781 138.90625 C 196.601562 143.738281 195.703125 148.902344 193.449219 153.347656 L 192.28125 152.460938 L 183.953125 142.664062 L 187.753906 137.210938 C 189.179688 134.742188 190.285156 132.089844 191.359375 129.453125 C 192.945312 125.566406 194.484375 121.496094 195.039062 117.3125 C 195.15625 116.410156 195.347656 115.472656 195.34375 114.558594 C 195.339844 112.003906 194.707031 109.042969 194.011719 106.585938 C 193.804688 105.847656 193.449219 105.148438 193.265625 104.40625 L 193.113281 103.8125 C 192.917969 103.351562 192.472656 102.910156 192.203125 102.480469 C 190.394531 99.605469 188.726562 97.207031 185.507812 95.792969 C 184.738281 95.457031 184.050781 95.375 183.226562 95.292969 L 182.988281 94.976562 C 183.789062 94.878906 185.808594 94.898438 186.5 95.285156 C 187.429688 95.804688 188.417969 96.308594 189.210938 97.027344 C 190.699219 98.378906 192.070312 100.308594 192.84375 102.164062 C 193.011719 102.558594 193.050781 103.003906 193.191406 103.40625 C 193.769531 105.050781 194.59375 106.667969 195.195312 108.316406 C 196.066406 110.683594 196.707031 113.273438 197.894531 115.496094 C 199.035156 117.628906 200.78125 119.40625 202.75 120.785156 L 202.90625 120.890625 C 201.679688 123.730469 200.871094 126.621094 200.050781 129.59375 Z M 200.160156 104.519531 L 200.199219 104.128906 C 200.648438 100.476562 202.054688 95.070312 205.082031 92.6875 L 205.351562 92.648438 C 205.472656 92.730469 205.628906 92.78125 205.71875 92.898438 C 206.089844 93.382812 206.292969 94.457031 206.480469 95.050781 L 207.925781 99.644531 C 208.726562 102.140625 209.558594 104.671875 210.6875 107.042969 C 211.503906 108.761719 212.46875 110.46875 213.632812 111.976562 C 214.464844 113.058594 215.414062 114 216.171875 115.148438 C 213.628906 114.390625 212.238281 113.460938 210.671875 111.347656 C 209.851562 110.121094 209.171875 108.859375 208.574219 107.511719 L 206.695312 102.929688 C 206.34375 102.121094 205.902344 101.101562 205.199219 100.542969 C 204.71875 100.160156 204.089844 99.914062 203.476562 100.050781 C 201.902344 100.394531 201.035156 103.265625 200.15625 104.519531 Z M 240.847656 132.148438 L 240.605469 132.238281 C 239.605469 132.664062 238.960938 134.390625 238.648438 135.371094 L 237.621094 139.722656 C 234.261719 136.476562 231.003906 131.089844 225.703125 131.199219 C 223.414062 131.246094 221.8125 132.808594 220.144531 134.175781 C 219.269531 133.085938 218.382812 132 217.335938 131.066406 C 216.226562 130.085938 214.964844 129.285156 213.828125 128.339844 C 212.359375 127.121094 211.066406 125.664062 209.996094 124.089844 C 209.585938 123.96875 208.617188 121.992188 208.351562 121.527344 L 208.332031 121.523438 C 207.5 119.960938 206.742188 118.234375 206.382812 116.492188 L 205.660156 114.164062 C 205.136719 111.449219 203.6875 109.222656 203.882812 106.351562 C 204.09375 105.945312 204.226562 105.78125 204.617188 105.539062 C 205.566406 106.667969 206.234375 108.507812 206.964844 109.835938 C 207.632812 111.039062 208.425781 112.105469 209.265625 113.195312 L 211.605469 115.339844 L 211.609375 115.386719 C 213.738281 116.765625 217.074219 118.269531 219.671875 117.761719 C 219.996094 117.699219 220.269531 117.578125 220.570312 117.441406 L 221.171875 117.160156 C 222.21875 118.386719 223.015625 119.777344 224.121094 120.957031 C 226.5625 123.554688 229.648438 125.988281 232.824219 127.625 C 234.238281 128.355469 235.761719 128.929688 237.148438 129.695312 C 238.410156 130.390625 239.574219 131.269531 240.851562 131.960938 L 240.851562 132.144531 Z M 232.460938 120.816406 C 228.445312 117.835938 225.398438 114.601562 223.339844 110 C 222.375 107.847656 221.566406 105.644531 220.949219 103.363281 C 220.566406 101.957031 220.363281 100.464844 219.769531 99.121094 C 219.515625 98.546875 219.074219 97.785156 218.453125 97.582031 C 215.960938 96.773438 214.761719 102.0625 213.210938 102.945312 L 212.964844 102.738281 C 212.917969 102.453125 212.910156 102.261719 213.015625 101.980469 C 213.503906 100.714844 214.265625 99.542969 214.792969 98.289062 C 215.679688 96.175781 216.128906 93.640625 217.40625 91.738281 L 217.59375 91.460938 C 218.1875 90.5625 218.542969 90.300781 219.535156 89.941406 C 221.726562 92.398438 222.6875 95.800781 223.859375 98.828125 C 225.511719 103.089844 227.261719 107.4375 230.082031 111.089844 C 231.414062 112.8125 232.949219 114.460938 234.613281 115.871094 C 235.246094 116.40625 237.089844 117.335938 237.269531 118.050781 C 236.960938 118.160156 236.734375 118.144531 236.566406 118.449219 C 236 119.464844 237.074219 122.261719 237.464844 123.265625 L 237.667969 123.78125 C 238.003906 121.90625 238.097656 120.164062 237.660156 118.296875 C 237.855469 118.339844 237.886719 118.332031 238.085938 118.457031 C 238.519531 118.730469 238.917969 119.484375 239.113281 119.9375 C 240.140625 122.332031 240.46875 125.089844 241.09375 127.609375 C 238.535156 124.976562 235.394531 122.988281 232.464844 120.816406 Z M 255.203125 149.644531 C 254.847656 147.601562 254.171875 145.640625 253.476562 143.691406 C 252.175781 140.039062 250.6875 136.324219 248.101562 133.375 C 247.484375 132.675781 246.820312 132.03125 246.089844 131.445312 C 245.640625 131.082031 244.859375 130.617188 244.585938 130.113281 C 244.273438 129.542969 244.144531 128.761719 243.988281 128.128906 L 242.957031 123.535156 C 242.566406 122.066406 241.925781 120.609375 241.597656 119.140625 C 241.191406 118.421875 240.871094 117.59375 240.390625 116.925781 C 239.15625 115.207031 236.371094 113.664062 234.578125 112.570312 C 236.238281 111.527344 237.710938 110.429688 239.136719 109.074219 C 239.542969 108.6875 240.78125 107.183594 241.207031 107.132812 C 243.316406 109.179688 245 111.261719 246.339844 113.886719 C 248.210938 117.394531 249.289062 121.378906 250.363281 125.1875 L 252.53125 132.898438 L 254.800781 144.316406 C 255.199219 146.507812 255.867188 149.113281 255.761719 151.328125 C 255.503906 150.757812 255.3125 150.261719 255.203125 149.644531 Z M 276.316406 265.300781 L 276.402344 265.703125 L 276.164062 265.835938 C 275.691406 266.644531 275.703125 268.003906 275.691406 268.921875 C 275.65625 271.882812 275.9375 274.804688 276.289062 277.738281 C 274.148438 275.550781 273 273.082031 272.253906 270.152344 C 270.574219 263.527344 270.496094 256.1875 269.9375 249.375 L 268.644531 234.007812 L 266.558594 214.242188 L 264.753906 197.347656 C 264.550781 195.804688 264.472656 194.101562 264.144531 192.589844 C 264.035156 192.085938 263.796875 191.25 264.019531 190.773438 C 264.078125 191.03125 264.09375 191.214844 264.25 191.433594 C 264.308594 191.261719 264.339844 191.214844 264.347656 191.007812 C 264.363281 190.519531 264.234375 189.890625 263.9375 189.503906 L 263.695312 189.632812 L 263.300781 186.539062 L 262.46875 179.414062 C 262.503906 178.226562 262.125 176.738281 261.984375 175.523438 L 260.441406 163.414062 L 258.941406 153.769531 L 257.855469 146.835938 L 257.570312 144.613281 L 251.777344 120.503906 C 253.085938 122.515625 254.53125 124.550781 255.683594 126.648438 C 258.339844 131.480469 259.753906 137.015625 261.414062 142.238281 L 263.914062 150.726562 L 264.160156 151.957031 L 264.382812 152.714844 L 264.53125 153.324219 L 265.34375 156.3125 L 265.644531 157.765625 C 265.964844 158.738281 266.089844 159.832031 266.464844 160.765625 C 266.683594 161.75 267.175781 163.132812 267.175781 164.113281 L 269.023438 172.921875 L 270.042969 179.1875 L 270.730469 183.453125 C 271.144531 185.214844 271.257812 187.054688 271.617188 188.828125 L 272.867188 196.203125 C 273.230469 198.371094 273.679688 200.550781 273.90625 202.738281 L 275.5 227.667969 L 276.207031 245.773438 L 276.457031 258.851562 L 276.339844 263.167969 C 276.3125 263.851562 276.1875 264.625 276.320312 265.296875 Z M 280.871094 192.171875 C 280.828125 192.273438 278.285156 192.71875 277.839844 192.84375 L 277.601562 192.917969 L 276.511719 185.5 L 278.136719 184.492188 C 278.34375 183.996094 278.433594 183.476562 278.367188 182.9375 C 278.339844 182.699219 278.246094 182.164062 278.035156 182.035156 C 277.359375 181.617188 276.582031 181.992188 275.886719 182.195312 L 272.859375 169.957031 L 268.683594 153.621094 L 264.769531 138.875 C 263.746094 135.019531 262.867188 130.960938 261.3125 127.28125 C 260.808594 126.09375 260.25 124.839844 259.507812 123.777344 C 257.6875 121.171875 255.214844 119.207031 253.164062 116.808594 C 250.539062 113.734375 248.140625 110.375 246.054688 106.914062 C 245.097656 105.328125 244.171875 103.742188 243.390625 102.0625 C 242.421875 99.988281 241.761719 97.464844 240.28125 95.710938 C 239.617188 94.925781 238.957031 94.605469 238.035156 94.230469 C 236.792969 94.804688 236.21875 95.398438 235.386719 96.449219 L 235.054688 96.5 C 234.828125 96.863281 234.710938 97.242188 234.710938 97.675781 C 234.714844 98.589844 234.539062 99.433594 234.089844 100.242188 L 233.75 100.050781 C 233.574219 99.191406 233.960938 97.992188 234.367188 97.214844 C 234.632812 96.707031 234.847656 96.269531 234.996094 95.710938 L 235.054688 95.488281 C 235.722656 92.949219 237.710938 90.234375 239.992188 88.921875 L 240.292969 89.007812 C 241.089844 90.003906 241.617188 91.304688 242.183594 92.449219 C 244.570312 97.292969 246.058594 102.632812 248.988281 107.195312 C 251.003906 110.335938 253.429688 113.175781 255.988281 115.882812 C 258.648438 118.691406 261.414062 120.957031 263.210938 124.488281 C 264.695312 127.40625 265.800781 130.542969 266.78125 133.660156 L 269.921875 144.917969 L 272.3125 153.53125 L 275.957031 169.351562 L 278.472656 179.222656 L 279.660156 185.015625 C 280.066406 186.855469 280.617188 188.714844 280.917969 190.570312 C 280.996094 191.046875 281.0625 191.710938 280.871094 192.171875 Z M 301.316406 272.101562 C 299.433594 271.539062 297.597656 271.03125 295.945312 269.914062 C 294.042969 268.628906 293.066406 267.234375 292.222656 265.109375 L 291.242188 261.878906 C 291.910156 262.273438 292.617188 262.78125 293.429688 262.6875 C 294.019531 262.617188 294.269531 262.394531 294.621094 261.941406 C 294.707031 261.484375 294.792969 261.105469 294.550781 260.667969 C 294.339844 260.289062 294.027344 260.050781 293.632812 259.910156 C 292.800781 259.609375 292.25 260 291.511719 260.351562 C 291.371094 258.441406 291.59375 256.417969 291.707031 254.507812 L 291.8125 249.089844 L 291.523438 237.757812 C 291.363281 229.914062 291.226562 222.09375 289.902344 214.34375 C 288.394531 205.519531 285.808594 197.023438 283.722656 188.339844 L 276.761719 155.589844 L 274.964844 146.8125 C 274.808594 145.894531 274.496094 145.132812 274.628906 144.1875 C 274.984375 144.691406 275.03125 145.449219 275.238281 146.039062 C 275.597656 147.054688 276.144531 148.027344 276.535156 149.039062 C 276.953125 150.109375 277.210938 151.304688 277.703125 152.335938 C 277.992188 152.941406 278.132812 153.191406 278.75 153.429688 C 279.332031 153.285156 279.382812 153.316406 279.761719 152.8125 C 280.082031 149.160156 277.558594 146.613281 276.234375 143.5 L 277.070312 142.601562 C 277.089844 141.832031 276.960938 141.289062 276.378906 140.746094 C 276.191406 140.574219 275.8125 140.304688 275.730469 140.0625 C 275.660156 139.863281 275.636719 139.53125 275.597656 139.3125 C 274.820312 134.929688 274.367188 130.382812 273.269531 126.074219 C 273.015625 125.078125 272.570312 123.414062 271.710938 122.773438 C 271.304688 122.46875 270.875 122.5 270.402344 122.566406 C 270.171875 122.914062 270.085938 123.011719 270.132812 123.453125 C 270.21875 124.207031 270.699219 125.101562 270.96875 125.8125 C 271.691406 127.722656 272.988281 131.191406 272.5625 133.191406 L 272.347656 133.292969 C 271.675781 132.550781 271.46875 131.042969 271.160156 130.082031 C 270.769531 128.871094 270.304688 127.683594 269.6875 126.566406 C 268.296875 124.050781 266.074219 121.800781 264.167969 119.671875 C 262.855469 118.210938 261.589844 116.648438 260.160156 115.304688 L 260.035156 115.191406 C 260.957031 114.695312 261.9375 114.230469 262.539062 113.335938 C 264.035156 111.117188 262.972656 107.257812 262.558594 104.851562 C 263.28125 105.703125 263.828125 106.722656 264.523438 107.605469 C 267.234375 111.054688 270.386719 114.207031 274.332031 116.226562 C 276.867188 117.523438 279.605469 118.476562 281.894531 120.214844 C 283.359375 121.328125 284.730469 122.902344 285.28125 124.6875 C 285.992188 126.980469 286.203125 129.460938 286.5625 131.832031 L 288.847656 148.984375 L 290.679688 161.746094 L 291.464844 169.847656 L 293.210938 185.128906 L 293.398438 188.257812 C 293.59375 190.242188 294.152344 192.222656 294.457031 194.195312 L 294.945312 198.589844 L 296.105469 206.636719 L 295.847656 206.886719 C 295.503906 207.273438 295.03125 207.835938 295.113281 208.378906 C 295.207031 208.992188 295.730469 209.382812 296.164062 209.761719 C 297.003906 210.492188 298.722656 224.1875 298.875 225.855469 C 298.207031 226.039062 297.074219 226.324219 296.667969 226.925781 C 296.410156 227.304688 296.421875 228.015625 296.515625 228.453125 C 296.917969 230.289062 298.476562 229.375 299.570312 230.078125 C 300.023438 231.679688 299.382812 231.84375 298.699219 233.167969 C 298.277344 233.980469 297.894531 235.1875 298.289062 236.082031 C 298.652344 236.910156 299.679688 237.355469 300.4375 237.753906 C 300.871094 239.449219 300.796875 241.625 300.734375 243.367188 C 299.984375 243.308594 299.175781 243.183594 298.464844 243.488281 C 297.425781 243.933594 296.433594 244.933594 296.027344 245.996094 C 295.792969 246.609375 295.671875 246.878906 295.957031 247.492188 C 296.476562 247.886719 297 247.957031 297.648438 247.929688 C 299.097656 247.871094 300.058594 246.8125 301.011719 245.84375 L 301.601562 252.652344 C 300.648438 252.621094 299.640625 252.4375 298.824219 253.007812 C 298.574219 253.445312 298.515625 253.699219 298.472656 254.203125 C 298.664062 254.625 298.707031 254.875 299.140625 255.105469 C 299.910156 255.511719 300.960938 255.042969 301.730469 254.804688 L 301.71875 260.566406 L 301.253906 260.195312 C 300.753906 259.84375 300.140625 259.578125 299.53125 259.75 C 299.027344 259.894531 298.507812 260.40625 298.300781 260.875 C 298.140625 261.234375 298.089844 261.445312 298.28125 261.8125 C 298.511719 262.257812 298.855469 262.449219 299.285156 262.652344 C 300.199219 262.675781 300.730469 262.558594 301.539062 262.136719 L 301.769531 262.011719 Z M 301.316406 272.101562 " fill-opacity="1" fill-rule="nonzero"/></g><path fill="#000000" d="M 284.136719 140.300781 C 283.550781 140.539062 283.25 140.734375 282.832031 141.210938 C 282.75 141.652344 282.675781 141.9375 282.933594 142.347656 C 283.160156 142.707031 283.59375 142.859375 283.996094 142.90625 C 284.285156 142.941406 284.511719 142.933594 284.796875 142.878906 C 285.324219 142.691406 285.726562 142.550781 285.976562 142.011719 C 286.179688 141.574219 286.046875 141.214844 285.898438 140.792969 C 285.5625 140.441406 285.222656 140.207031 284.714844 140.191406 C 284.515625 140.183594 284.324219 140.25 284.136719 140.304688 Z M 284.136719 140.300781 " fill-opacity="1" fill-rule="nonzero"/><path fill="#000000" d="M 294.292969 218.246094 C 294.542969 218.609375 295.097656 218.851562 295.53125 218.878906 C 295.855469 218.894531 295.773438 218.894531 296.085938 218.832031 C 296.714844 218.605469 296.972656 218.382812 297.398438 217.871094 C 297.472656 217.117188 297.335938 216.855469 296.898438 216.230469 C 296.648438 215.878906 296.1875 215.691406 295.761719 215.671875 C 295.585938 215.664062 295.457031 215.703125 295.292969 215.742188 C 294.75 216.003906 294.253906 216.273438 294.089844 216.914062 C 293.988281 217.304688 294.0625 217.910156 294.292969 218.246094 Z M 294.292969 218.246094 " fill-opacity="1" fill-rule="nonzero"/><path fill="#000000" d="M 283.648438 165.179688 C 284.210938 164.886719 284.503906 164.636719 284.855469 164.113281 C 284.980469 163.546875 285.007812 163.152344 284.699219 162.640625 C 284.464844 162.25 284.101562 161.851562 283.648438 161.738281 C 283.425781 161.679688 283.113281 161.722656 282.878906 161.738281 C 282.332031 161.980469 281.773438 162.292969 281.53125 162.878906 C 281.363281 163.289062 281.453125 163.757812 281.523438 164.179688 C 281.816406 164.65625 282.113281 164.988281 282.667969 165.164062 C 282.992188 165.265625 283.320312 165.222656 283.648438 165.179688 Z M 283.648438 165.179688 " fill-opacity="1" fill-rule="nonzero"/><path fill="#000000" d="M 296.339844 238.488281 C 296.707031 237.800781 296.785156 236.964844 296.488281 236.242188 C 296.320312 235.820312 296.09375 235.601562 295.757812 235.308594 C 295.46875 235.3125 295.226562 235.3125 294.941406 235.378906 C 294.242188 235.734375 293.742188 236.074219 293.464844 236.84375 C 293.253906 237.4375 293.417969 238.023438 293.714844 238.554688 C 293.882812 238.855469 294.109375 239.066406 294.359375 239.304688 C 294.621094 239.355469 294.839844 239.398438 295.105469 239.402344 C 295.65625 239.226562 296.054688 239.015625 296.339844 238.484375 Z M 296.339844 238.488281 " fill-opacity="1" fill-rule="nonzero"/><path fill="#000000" d="M 282.667969 133.324219 C 283.023438 133.429688 283.277344 133.5 283.652344 133.457031 C 284.21875 133.1875 284.539062 132.910156 284.960938 132.445312 C 285.183594 131.511719 285.039062 130.890625 284.589844 130.050781 C 284.023438 129.667969 283.828125 129.566406 283.125 129.664062 C 282.519531 129.886719 282.011719 130.207031 281.730469 130.816406 C 281.527344 131.253906 281.578125 131.75 281.761719 132.191406 C 281.964844 132.683594 282.261719 132.992188 282.667969 133.324219 Z M 282.667969 133.324219 " fill-opacity="1" fill-rule="nonzero"/><path fill="#000000" d="M 291.980469 190.136719 C 292.042969 189.925781 292.03125 189.765625 291.980469 189.558594 C 291.554688 189.0625 291.296875 188.738281 290.605469 188.621094 C 290.316406 188.574219 289.984375 188.621094 289.699219 188.652344 C 288.84375 189.121094 288.128906 189.386719 287.808594 190.378906 C 287.898438 190.945312 287.96875 191.382812 288.429688 191.78125 C 288.78125 192.085938 289.355469 192.101562 289.789062 192.035156 L 290.03125 191.980469 C 290.878906 191.546875 291.695312 191.113281 291.980469 190.136719 Z M 291.980469 190.136719 " fill-opacity="1" fill-rule="nonzero"/><path fill="#000000" d="M 293.996094 199.707031 C 294.21875 199.289062 294.226562 198.597656 294.074219 198.152344 C 293.875 197.558594 293.601562 197.191406 293.015625 196.925781 C 292.539062 196.714844 292.113281 196.632812 291.601562 196.757812 C 291.015625 197.035156 290.726562 197.246094 290.382812 197.800781 C 290.28125 198.304688 290.226562 198.71875 290.554688 199.160156 C 290.957031 199.703125 291.628906 200.238281 292.324219 200.277344 L 292.976562 200.269531 C 293.382812 200.136719 293.777344 200.113281 293.992188 199.707031 Z M 293.996094 199.707031 " fill-opacity="1" fill-rule="nonzero"/><path fill="#000000" d="M 265.964844 111.007812 C 265.109375 111.765625 264.960938 112.492188 264.894531 113.605469 C 264.808594 115 264.53125 116.933594 265.097656 118.210938 C 265.320312 118.320312 265.398438 118.410156 265.652344 118.371094 C 266.433594 117.722656 266.523438 116.539062 266.613281 115.582031 C 266.746094 114.1875 267.09375 112.328125 266.597656 111.007812 C 266.335938 110.964844 266.226562 110.933594 265.964844 111.007812 Z M 265.964844 111.007812 " fill-opacity="1" fill-rule="nonzero"/><path fill="#000000" d="M 288.480469 180.351562 C 288.691406 179.703125 288.652344 179.035156 288.292969 178.453125 C 287.941406 177.878906 287.433594 177.570312 286.78125 177.449219 C 286.554688 177.40625 286.363281 177.414062 286.140625 177.449219 C 285.574219 177.625 285.457031 177.652344 285.039062 178.105469 C 284.789062 178.933594 284.886719 180.222656 285.296875 180.992188 C 285.484375 181.347656 285.75 181.496094 286.101562 181.648438 C 286.507812 181.648438 286.859375 181.648438 287.25 181.523438 C 287.78125 181.25 288.28125 180.953125 288.476562 180.351562 Z M 288.480469 180.351562 " fill-opacity="1" fill-rule="nonzero"/><path fill="#000000" d="M 278.402344 128.851562 L 278.359375 128.847656 C 277.664062 129.078125 277.089844 129.386719 276.753906 130.074219 C 276.550781 130.484375 276.660156 131.34375 276.855469 131.746094 C 277.058594 132.167969 277.445312 132.453125 277.875 132.617188 C 278.332031 132.789062 279.070312 132.710938 279.566406 132.703125 C 280.085938 132.4375 280.484375 132.195312 280.910156 131.792969 C 281.042969 131.253906 281.058594 131.054688 280.765625 130.566406 C 280.222656 129.652344 279.4375 129.0625 278.402344 128.851562 Z M 278.402344 128.851562 " fill-opacity="1" fill-rule="nonzero"/><path fill="#000000" d="M 286.894531 169.820312 C 287.015625 169.316406 286.894531 168.996094 286.636719 168.554688 C 286.363281 168.082031 285.828125 167.703125 285.285156 167.621094 C 285.003906 167.578125 284.699219 167.605469 284.417969 167.628906 C 283.710938 167.878906 282.960938 168.308594 282.597656 168.992188 C 282.304688 169.550781 282.234375 170.09375 282.445312 170.691406 C 282.625 171.203125 282.898438 171.527344 283.398438 171.742188 C 283.882812 171.953125 284.304688 171.878906 284.792969 171.777344 C 285.558594 171.316406 286.671875 170.765625 286.894531 169.816406 Z M 286.894531 169.820312 " fill-opacity="1" fill-rule="nonzero"/><path fill="#000000" d="M 285.289062 150.5 C 284.757812 150.183594 284.195312 150.195312 283.597656 150.207031 C 282.9375 150.566406 281.964844 150.949219 281.789062 151.757812 C 281.640625 152.425781 282.019531 153.148438 282.445312 153.621094 C 283.011719 154.253906 283.734375 154.800781 284.609375 154.839844 L 284.957031 154.835938 C 285.5625 154.753906 286.097656 154.59375 286.472656 154.070312 C 286.78125 153.636719 286.765625 152.949219 286.65625 152.4375 C 286.5 151.722656 285.917969 150.871094 285.289062 150.5 Z M 285.289062 150.5 " fill-opacity="1" fill-rule="nonzero"/><path fill="#000000" d="M 283.867188 211.847656 C 283.636719 211.476562 283.234375 211.210938 282.800781 211.152344 C 282.542969 211.117188 282.296875 211.128906 282.039062 211.160156 C 281.398438 211.351562 280.703125 211.691406 280.390625 212.324219 C 280.109375 212.894531 280.109375 213.304688 280.335938 213.878906 C 280.453125 214.175781 280.617188 214.429688 280.914062 214.574219 C 281.261719 214.75 281.707031 214.710938 282.089844 214.710938 C 282.71875 214.421875 283.667969 213.980469 283.980469 213.308594 C 284.152344 212.953125 284.074219 212.171875 283.867188 211.847656 Z M 283.867188 211.847656 " fill-opacity="1" fill-rule="nonzero"/><path fill="#000000" d="M 282.40625 243.480469 C 282.890625 243.921875 283.316406 243.964844 283.949219 244.070312 C 285.066406 243.941406 285.992188 243.734375 286.722656 242.8125 C 287.140625 242.289062 287.167969 241.738281 287.054688 241.097656 C 286.964844 240.613281 286.773438 240.308594 286.464844 239.9375 C 286.015625 239.734375 285.988281 239.691406 285.515625 239.796875 C 284.570312 240.242188 282.65625 241.609375 282.335938 242.632812 C 282.222656 242.988281 282.320312 243.132812 282.40625 243.480469 Z M 282.40625 243.480469 " fill-opacity="1" fill-rule="nonzero"/><path fill="#000000" d="M 287.820312 268.976562 C 287.714844 268.46875 287.367188 267.914062 286.9375 267.621094 C 286.464844 267.296875 285.828125 267.351562 285.289062 267.453125 C 284.589844 267.777344 283.511719 268.308594 283.214844 269.089844 C 283.023438 269.589844 283.097656 270.125 283.324219 270.609375 C 283.636719 271.285156 284.335938 271.597656 285.019531 271.800781 L 285.613281 271.945312 C 286.378906 271.851562 286.910156 271.710938 287.386719 271.054688 C 287.816406 270.457031 287.96875 269.691406 287.820312 268.972656 Z M 287.820312 268.976562 " fill-opacity="1" fill-rule="nonzero"/><path fill="#000000" d="M 180.132812 218.03125 L 180.035156 217.847656 C 179.730469 217.308594 179.1875 216.910156 178.578125 216.78125 L 177.867188 216.691406 L 177.65625 216.671875 L 177.53125 216.664062 C 176.851562 216.882812 175.996094 217.132812 175.566406 217.761719 C 175.230469 218.257812 175.246094 219.066406 175.429688 219.613281 C 175.734375 220.511719 176.433594 221.121094 177.292969 221.476562 C 177.65625 221.625 178.042969 221.6875 178.429688 221.746094 C 179.238281 221.628906 179.851562 221.34375 180.339844 220.65625 C 180.683594 220.171875 180.714844 219.503906 180.554688 218.941406 C 180.464844 218.621094 180.292969 218.324219 180.132812 218.035156 Z M 180.132812 218.03125 " fill-opacity="1" fill-rule="nonzero"/><path fill="#000000" d="M 177.363281 186.226562 C 177.761719 186.332031 178.179688 186.386719 178.589844 186.402344 C 179.46875 186.195312 179.886719 185.945312 180.351562 185.164062 C 180.660156 184.652344 180.726562 184.011719 180.582031 183.433594 C 180.390625 182.683594 179.738281 181.757812 179.054688 181.375 C 178.511719 181.070312 178.023438 180.929688 177.410156 181.050781 C 176.765625 181.335938 175.855469 181.699219 175.507812 182.371094 C 175.144531 183.082031 175.273438 184.300781 175.625 184.996094 C 175.957031 185.660156 176.671875 186.046875 177.363281 186.226562 Z M 177.363281 186.226562 " fill-opacity="1" fill-rule="nonzero"/><path fill="#000000" d="M 169.269531 279.320312 C 167.769531 279.039062 166.050781 279.089844 164.535156 279.210938 C 161.886719 279.472656 159.339844 280.042969 157.085938 281.527344 L 156.878906 281.933594 C 157.253906 282.246094 157.496094 282.1875 157.972656 282.144531 L 162.761719 281.480469 L 167.582031 280.992188 C 168.410156 280.941406 169.554688 281.113281 170.328125 280.917969 C 170.664062 280.832031 170.828125 280.683594 171.023438 280.410156 L 171.140625 280.21875 C 170.726562 279.613281 169.96875 279.453125 169.269531 279.320312 Z M 169.269531 279.320312 " fill-opacity="1" fill-rule="nonzero"/><path fill="#000000" d="M 176.953125 168.050781 C 177.90625 167.992188 178.480469 167.753906 179.109375 167.011719 C 179.695312 166.316406 179.902344 165.242188 179.8125 164.359375 C 179.71875 163.441406 178.996094 162.585938 178.300781 162.035156 C 177.867188 161.695312 177.28125 161.5625 176.738281 161.574219 C 175.769531 161.90625 174.515625 162.445312 174.027344 163.414062 C 173.65625 164.152344 173.808594 164.792969 174.078125 165.542969 C 174.476562 166.65625 175.136719 167.429688 176.234375 167.878906 C 176.476562 167.980469 176.695312 168.03125 176.953125 168.054688 Z M 176.953125 168.050781 " fill-opacity="1" fill-rule="nonzero"/><path fill="#000000" d="M 179.488281 197.226562 C 179.148438 197.121094 178.722656 197.152344 178.382812 197.25 C 177.367188 197.714844 176.367188 198.269531 175.945312 199.367188 C 175.5625 200.367188 175.585938 201.273438 176.046875 202.25 C 176.429688 203.054688 177.007812 203.644531 177.863281 203.933594 C 178.210938 204.050781 178.554688 204.050781 178.917969 204.035156 C 179.8125 203.660156 180.625 203.089844 181.03125 202.171875 C 181.476562 201.160156 181.5625 200.195312 181.144531 199.152344 C 180.855469 198.4375 180.292969 197.46875 179.492188 197.226562 Z M 179.488281 197.226562 " fill-opacity="1" fill-rule="nonzero"/><path fill="#000000" d="M 135.339844 282.425781 C 134.453125 281.996094 133.492188 281.167969 132.527344 280.996094 C 131.230469 280.769531 129.613281 281.3125 128.269531 281.285156 C 126.621094 281.253906 124.859375 280.695312 123.210938 280.484375 C 121.191406 280.96875 119.949219 281.835938 118.371094 283.160156 C 121.300781 282.667969 124.4375 282.234375 127.050781 283.992188 C 127.949219 284.601562 128.492188 285.570312 129.550781 285.960938 C 130.03125 286.136719 130.5625 286.21875 131.070312 286.246094 C 132.484375 286.320312 133.925781 286.046875 135.347656 286.050781 L 141.929688 286.316406 C 143.105469 286.25 144.960938 286.207031 145.816406 285.285156 C 146.039062 285.042969 146.097656 284.777344 146.179688 284.46875 C 145.503906 283.960938 142.761719 284.175781 141.777344 284.066406 C 139.539062 283.820312 137.386719 283.414062 135.34375 282.425781 Z M 135.339844 282.425781 " fill-opacity="1" fill-rule="nonzero"/><path fill="#000000" d="M 216.554688 286.222656 C 214.335938 286.632812 212.269531 287.292969 209.976562 287.425781 C 208.0625 287.539062 206.222656 287.222656 204.363281 286.808594 C 200.445312 285.933594 196.683594 284.425781 193.296875 282.253906 C 191.0625 280.820312 187.863281 278.273438 187.242188 275.605469 C 186.925781 274.234375 187.058594 272.519531 186.988281 271.101562 L 186.414062 261.082031 L 185.882812 252.710938 L 185.703125 245.65625 L 185.175781 236.078125 L 185.851562 213.257812 L 185.371094 185.546875 L 184.449219 167.515625 C 184.046875 163.515625 182.941406 159.636719 182.425781 155.648438 C 182.273438 154.46875 182.035156 153.269531 181.964844 152.082031 C 181.816406 149.613281 182.269531 146.8125 180.773438 144.660156 L 180.652344 144.484375 C 180.164062 143.800781 179.1875 143.136719 178.347656 143.023438 C 178.109375 142.992188 177.882812 143.039062 177.652344 143.082031 C 176.339844 143.695312 175.066406 144.371094 174.597656 145.863281 C 174.28125 146.882812 174.425781 147.9375 174.957031 148.855469 C 175.378906 149.582031 176.039062 150.300781 176.902344 150.460938 C 177.472656 150.570312 178.269531 150.648438 178.769531 150.28125 C 178.984375 150.125 178.964844 150.058594 179.132812 149.871094 L 179.410156 149.636719 C 180.117188 150.816406 179.949219 153.171875 180.105469 154.574219 C 180.390625 157.132812 181.085938 159.65625 181.289062 162.226562 C 181.613281 166.371094 181.339844 170.597656 181.429688 174.757812 L 181.804688 180.3125 L 182.15625 188.382812 L 182.5 194.46875 L 182.453125 204.980469 L 182.734375 216.800781 L 182.398438 233.273438 L 182.589844 246.507812 C 182.726562 254.574219 182.910156 262.527344 183.710938 270.5625 C 184.011719 273.589844 183.929688 276.820312 185.390625 279.585938 C 186.582031 281.847656 188.925781 283.269531 191.042969 284.566406 C 194.21875 286.507812 197.578125 288.3125 201.214844 289.226562 C 205.429688 290.285156 210.6875 290.898438 214.75 289.042969 C 215.910156 288.488281 217.359375 287.835938 218.132812 286.761719 L 218.167969 286.332031 C 217.703125 286.019531 217.097656 286.121094 216.554688 286.222656 Z M 216.554688 286.222656 " fill-opacity="1" fill-rule="nonzero"/></svg>